<svg xmlns="http://www.w3.org/2000/svg" version="1.1" xmlns:xlink="http://www.w3.org/1999/xlink" xmlns:svgjs="http://svgjs.com/svgjs" width="979.000000pt" height="1280.000000pt"><svg version="1.0" xmlns="http://www.w3.org/2000/svg" width="979.000000pt" height="1280.000000pt" viewBox="0 0 979.000000 1280.000000" preserveAspectRatio="xMidYMid meet">
<metadata>
Created by potrace 1.15, written by Peter Selinger 2001-2017
</metadata>
<g transform="translate(0.000000,1280.000000) scale(0.100000,-0.100000)" fill="#000000" stroke="none">
<path d="M5620 12423 c-589 -41 -1020 -193 -1445 -508 -351 -260 -650 -613
-821 -970 -156 -324 -228 -655 -227 -1045 1 -360 51 -639 190 -1065 128 -392
304 -772 491 -1054 l55 -84 -64 -61 c-35 -34 -172 -163 -304 -287 -722 -681
-1196 -1226 -1646 -1894 -257 -380 -386 -614 -497 -896 -142 -363 -203 -670
-204 -1029 -1 -516 123 -951 380 -1329 303 -448 789 -827 1307 -1020 679 -252
1501 -263 2205 -31 741 245 1429 833 1779 1519 201 395 294 798 294 1276 0
199 -3 254 -27 408 -79 525 -212 991 -438 1527 -96 228 -241 491 -410 743
l-59 87 91 102 c50 55 138 155 194 222 876 1033 1342 1807 1525 2532 70 276
76 331 76 654 -1 324 -11 416 -74 663 -214 827 -860 1376 -1778 1512 -184 27
-438 39 -593 28z m470 -647 c266 -36 475 -147 643 -341 279 -322 403 -729 383
-1255 -14 -372 -73 -682 -196 -1045 -197 -576 -572 -1213 -990 -1680 -25 -28
-60 -68 -79 -90 -32 -37 -34 -38 -48 -20 -7 11 -11 26 -8 34 3 9 3 12 -1 8 -4
-4 -22 14 -39 41 -53 78 -355 585 -458 767 -52 94 -134 238 -181 320 -125 216
-240 448 -349 700 -272 633 -338 1008 -251 1435 106 520 528 979 1011 1100
160 41 378 50 563 26z m-1839 -4719 c12 -23 86 -145 164 -272 783 -1268 1168
-2094 1279 -2745 62 -364 27 -781 -96 -1140 -168 -490 -520 -903 -939 -1099
-172 -80 -311 -120 -502 -146 -303 -39 -626 -5 -868 91 -338 136 -630 428
-812 814 -221 467 -268 1101 -127 1719 184 811 643 1590 1398 2374 209 216
462 458 472 452 6 -4 20 -25 31 -48z"></path>
</g>
</svg><style>@media (prefers-color-scheme: light) { :root { filter: none; } }
</style></svg>